<?xml version="1.0" encoding="UTF-8" standalone="no"?>
<!-- Created with Inkscape (http://www.inkscape.org/) -->
<svg id="svg2" xmlns:rdf="http://www.w3.org/1999/02/22-rdf-syntax-ns#" xmlns="http://www.w3.org/2000/svg" height="14.566mm" width="14.258mm" version="1.1" xmlns:cc="http://creativecommons.org/ns#" xmlns:dc="http://purl.org/dc/elements/1.1/" viewBox="0 0 50.521173 51.610963">
 <metadata id="metadata7">
  <rdf:RDF>
   <cc:Work rdf:about="">
    <dc:format>image/svg+xml</dc:format>
    <dc:type rdf:resource="http://purl.org/dc/dcmitype/StillImage"/>
    <dc:title/>
   </cc:Work>
  </rdf:RDF>
 </metadata>
 <g id="layer1" transform="translate(-466.17 -485.13)">
  <g id="g5905" transform="translate(163.38 137.43)">
   <g stroke="#5ec482" stroke-miterlimit="10" stroke-width="1.75" fill="none">
    <g>
     <path id="path4006" d="m338.6 362.31v11.599c0 5.8638-4.7625 10.625-10.626 10.625-5.8712 0-10.625-4.7612-10.625-10.625v-11.599c0-2.385 4.7538-4.3138 10.625-4.3138 5.8638 0 10.626 1.9288 10.626 4.3138z"/>
     <path id="path4010" d="m338.6 362.31c0 2.3812-4.7588 4.3125-10.626 4.3125-5.8688 0-10.626-1.9312-10.626-4.3125 0-2.3812 4.7575-4.3125 10.626-4.3125 5.8675 0 10.626 1.9312 10.626 4.3125z"/>
     <path id="path4014" d="m338.6 364.27h2.0425c1.375 0 2.5 1.125 2.5 2.5v6.2088c0 1.375-1.125 2.5-2.5 2.5h-2.0425"/>
     <path id="path4018" d="m316.75 364.27h-2.0425c-1.375 0-2.5 1.125-2.5 2.5v6.2088c0 1.375 1.125 2.5 2.5 2.5h2.0425"/>
    </g>
    <path id="path4022" d="m336.27 395.13c0 1.8238-3.715 3.3025-8.2975 3.3025-4.5838 0-8.2975-1.4788-8.2975-3.3025 0-1.8238 3.7138-3.3025 8.2975-3.3025 4.5825 0 8.2975 1.4788 8.2975 3.3025z" stroke-linecap="round"/>
   </g>
   <path id="path4026" d="m329.97 384.53v9.3875c0 0.425-0.8875 0.7625-1.9875 0.7625s-2-0.3375-2-0.7625c0-0.0125 0-0.0375 0.0125-0.05v-9.3375h3.975z" fill="#f4f4fa"/>
   <g stroke="#5ec482" stroke-linecap="round" stroke-miterlimit="10" stroke-width="1.75" fill="none">
    <path id="path4030" d="m329.97 384.53v9.3875c0 0.425-0.8875 0.7625-1.9875 0.7625s-2-0.3375-2-0.7625c0-0.0125 0-0.0375 0.0125-0.05v-9.3375h3.975z"/>
    <path id="path4034" d="m327.98 348.58v4.7912"/>
    <path id="path4038" d="m345.23 355.68-3.3862 3.3875"/>
    <path id="path4042" d="m352.42 372.89-4.79 0.001"/>
    <path id="path4046" d="m345.33 390.15-3.3888-3.385"/>
    <path id="path4050" d="m310.86 390.24 3.385-3.3862"/>
    <path id="path4054" d="m303.67 373.02 4.7888-0.001"/>
    <path id="path4058" d="m310.76 355.77 3.3875 3.3862"/>
   </g>
  </g>
 </g>
</svg>
