<?xml version="1.0" encoding="UTF-8" standalone="no"?>
<!-- Created with Inkscape (http://www.inkscape.org/) -->
<svg id="svg2" xmlns:rdf="http://www.w3.org/1999/02/22-rdf-syntax-ns#" xmlns="http://www.w3.org/2000/svg" height="16.863mm" width="16.848mm" version="1.1" xmlns:cc="http://creativecommons.org/ns#" xmlns:dc="http://purl.org/dc/elements/1.1/" viewBox="0 0 59.698751 59.751621">
 <defs id="defs4">
  <clipPath id="clipPath4360-3" clipPathUnits="userSpaceOnUse">
   <path id="path4362-6" d="m0 960h540v-960h-540v960z"/>
  </clipPath>
 </defs>
 <metadata id="metadata7">
  <rdf:RDF>
   <cc:Work rdf:about="">
    <dc:format>image/svg+xml</dc:format>
    <dc:type rdf:resource="http://purl.org/dc/dcmitype/StillImage"/>
    <dc:title/>
   </cc:Work>
  </rdf:RDF>
 </metadata>
 <g id="layer1" transform="translate(-338.72 -496.77)">
  <g id="g4356" transform="matrix(1.25 0 0 -1.25 80.669 1279.6)">
   <g id="g4358" clip-path="url(#clipPath4360-3)">
    <g id="g4364" transform="translate(236.26 584.38)">
     <path id="path4366" d="m0 0c0-3.279-2.657-5.937-5.937-5.937-3.279 0-5.937 2.658-5.937 5.937s2.658 5.937 5.937 5.937c3.28 0 5.937-2.658 5.937-5.937" fill="#33334c"/>
    </g>
    <g id="g4368" transform="translate(254.2 625.24)">
     <path id="path4370" d="m0 0-23.881-40.864-23.878 40.864h47.759z" fill="#5ec482"/>
    </g>
    <g id="g4372" transform="translate(254.2 626.24)">
     <path id="path4374" d="m0 0-23.88-40.864-23.877 40.864h47.757z" fill="#5ec482"/>
    </g>
   </g>
  </g>
 </g>
</svg>
