<?xml version="1.0" encoding="UTF-8" standalone="no"?>
<!-- Created with Inkscape (http://www.inkscape.org/) -->
<svg id="svg2" xmlns:rdf="http://www.w3.org/1999/02/22-rdf-syntax-ns#" xmlns="http://www.w3.org/2000/svg" height="163.64mm" width="84.667mm" version="1.1" xmlns:cc="http://creativecommons.org/ns#" xmlns:dc="http://purl.org/dc/elements/1.1/" viewBox="0 0 299.99999 579.82617">
 <metadata id="metadata7">
  <rdf:RDF>
   <cc:Work rdf:about="">
    <dc:format>image/svg+xml</dc:format>
    <dc:type rdf:resource="http://purl.org/dc/dcmitype/StillImage"/>
    <dc:title/>
   </cc:Work>
  </rdf:RDF>
 </metadata>
 <g id="layer1" transform="translate(-305.71 -280.93)">
  <path id="path3336" opacity=".8" fill="#fc0" d="m455.71 280.93c-82.843 0-150 90.823-150 202.86 0 112.03 76.249 331.51 143.94 376.97 62.64-44.447 156.06-264.93 156.06-376.97 0-112.03-67.157-202.86-150-202.86zm-0.13672 86.545a75.761 57.074 0 0 1 75.762 57.074 75.761 57.074 0 0 1 -75.762 57.074 75.761 57.074 0 0 1 -75.762 -57.074 75.761 57.074 0 0 1 75.762 -57.074z"/>
 </g>
</svg>
