<?xml version="1.0" encoding="UTF-8" standalone="no"?>
<!-- Created with Inkscape (http://www.inkscape.org/) -->
<svg id="svg2" xmlns:rdf="http://www.w3.org/1999/02/22-rdf-syntax-ns#" xmlns="http://www.w3.org/2000/svg" height="108.48mm" width="74.067mm" version="1.1" xmlns:cc="http://creativecommons.org/ns#" xmlns:dc="http://purl.org/dc/elements/1.1/" viewBox="0 0 262.4414 384.36134">
 <metadata id="metadata7">
  <rdf:RDF>
   <cc:Work rdf:about="">
    <dc:format>image/svg+xml</dc:format>
    <dc:type rdf:resource="http://purl.org/dc/dcmitype/StillImage"/>
    <dc:title/>
   </cc:Work>
  </rdf:RDF>
 </metadata>
 <g id="layer1" transform="translate(-216.27 -379.7)">
  <path id="path4162" opacity=".8" fill="#fff" d="m347.49 379.7a131.22 129.2 0 0 0 -131.22 129.2 131.22 129.2 0 0 0 13.457 56.803l-1.8535 0.0195 60.9 99.17 60.9 99.168 58.719-100.38 58.719-100.38-0.76562 0.008a131.22 129.2 0 0 0 12.365 -54.404 131.22 129.2 0 0 0 -131.22 -129.2zm1.0098 43.412a78.717 71.141 0 0 1 78.719 71.143 78.717 71.141 0 0 1 -78.719 71.141 78.717 71.141 0 0 1 -78.717 -71.141 78.717 71.141 0 0 1 78.717 -71.143z"/>
 </g>
</svg>
