<?xml version="1.0" encoding="UTF-8" standalone="no"?>
<!-- Created with Inkscape (http://www.inkscape.org/) -->
<svg id="svg2" xmlns:rdf="http://www.w3.org/1999/02/22-rdf-syntax-ns#" xmlns="http://www.w3.org/2000/svg" height="16.373mm" width="12.036mm" version="1.1" xmlns:cc="http://creativecommons.org/ns#" xmlns:dc="http://purl.org/dc/elements/1.1/" viewBox="0 0 42.646079 58.015463">
 <metadata id="metadata7">
  <rdf:RDF>
   <cc:Work rdf:about="">
    <dc:format>image/svg+xml</dc:format>
    <dc:type rdf:resource="http://purl.org/dc/dcmitype/StillImage"/>
    <dc:title/>
   </cc:Work>
  </rdf:RDF>
 </metadata>
 <g id="layer1" transform="translate(-101.53 -526.21)">
  <g id="g4766" transform="translate(1.812 4.4919)">
   <path id="path3602" d="m118.63 550.16h6.9538v28.758h-6.9538v-28.758z" stroke="#f5f3f1" stroke-miterlimit="10" stroke-width="1.625" fill="none"/>
   <g id="g3604" transform="matrix(1.25 0 0 -1.25 108.31 578.92)">
    <path id="path3606" d="m0 0h22.082" stroke="#f5f3f1" stroke-linecap="round" stroke-miterlimit="10" stroke-width="1.3" fill="none"/>
   </g>
   <g id="g3608" transform="matrix(1.25 0 0 -1.25 135.04 536.95)">
    <path id="path3610" d="m0 0h-17.976v5.856h17.976l4.641-2.928-4.641-2.928z" fill="#f5f3f1"/>
   </g>
   <g id="g3612" transform="matrix(1.25 0 0 -1.25 135.04 536.95)">
    <path id="path3614" d="m0 0h-17.976v5.856h17.976l4.641-2.928-4.641-2.928z" stroke="#f5f3f1" stroke-miterlimit="10" stroke-width="1.3" fill="none"/>
   </g>
   <g id="g3616" transform="matrix(1.25 0 0 -1.25 107.05 549.75)">
    <path id="path3618" d="m0 0h17.976v5.856h-17.976l-4.641-2.928 4.641-2.928z" stroke="#f5f3f1" stroke-miterlimit="10" stroke-width="1.3" fill="none"/>
   </g>
   <path id="path3620" d="m125.59 522.53h-6.9538v6.655h6.9538v-6.655z" stroke="#f5f3f1" stroke-miterlimit="10" stroke-width="1.625" fill="none"/>
   <path id="path3622" d="m125.59 536.95h-6.9538v5.4775h6.9538v-5.4775z" stroke="#f5f3f1" stroke-miterlimit="10" stroke-width="1.625" fill="none"/>
  </g>
 </g>
</svg>
