<?xml version="1.0" encoding="UTF-8" standalone="no"?>
<!-- Created with Inkscape (http://www.inkscape.org/) -->
<svg id="svg2" xmlns:rdf="http://www.w3.org/1999/02/22-rdf-syntax-ns#" xmlns="http://www.w3.org/2000/svg" height="14.372mm" width="14.94mm" version="1.1" xmlns:cc="http://creativecommons.org/ns#" xmlns:dc="http://purl.org/dc/elements/1.1/" viewBox="0 0 52.936564 50.925">
 <metadata id="metadata7">
  <rdf:RDF>
   <cc:Work rdf:about="">
    <dc:format>image/svg+xml</dc:format>
    <dc:type rdf:resource="http://purl.org/dc/dcmitype/StillImage"/>
    <dc:title/>
   </cc:Work>
  </rdf:RDF>
 </metadata>
 <g id="layer1" transform="translate(-346.39 -448.33)">
  <path id="path3550" d="m366.26 486.47c-8.475 0-15.376-7.4625-15.376-16.638 0-9.1625 6.9012-16.688 15.376-16.688 8.4738 0 15.438 7.525 15.438 16.688 0 9.175-6.9638 16.638-15.438 16.638m32.312 8.6125-14.012-13.475c-0.3625-0.35-1.0875-1.0288-1.0625-1.075 1.6862-3.1588 2.6362-6.82 2.6362-10.7 0-11.812-8.9362-21.5-19.874-21.5-10.925 0-19.875 9.6875-19.875 21.5 0 11.838 8.8875 21.512 19.875 21.512 5.675 0 10.788-2.575 14.411-6.7 0.1 0.125 0.2 0.25 0.32625 0.375l14.088 13.538c0.4625 0.45 1.125 0.7 1.7738 0.7 0.66375 0 1.3262-0.25 1.7138-0.7625 0.99875-0.95 0.99875-2.4625 0-3.4125" fill="#857f90"/>
 </g>
</svg>
