<?xml version="1.0" encoding="UTF-8" standalone="no"?>
<!-- Created with Inkscape (http://www.inkscape.org/) -->
<svg id="svg2" xmlns:rdf="http://www.w3.org/1999/02/22-rdf-syntax-ns#" xmlns="http://www.w3.org/2000/svg" height="13.213mm" width="13.213mm" version="1.1" xmlns:cc="http://creativecommons.org/ns#" xmlns:dc="http://purl.org/dc/elements/1.1/" viewBox="0 0 46.817795 46.817173">
 <metadata id="metadata7">
  <rdf:RDF>
   <cc:Work rdf:about="">
    <dc:format>image/svg+xml</dc:format>
    <dc:type rdf:resource="http://purl.org/dc/dcmitype/StillImage"/>
    <dc:title/>
   </cc:Work>
  </rdf:RDF>
 </metadata>
 <g id="layer1" transform="translate(-142.31 -388.95)">
  <g id="g5805" transform="translate(73.569 109.15)">
   <path id="path3656" d="m92.145 303.21h14.423" stroke="#857f90" stroke-linecap="round" stroke-miterlimit="10" stroke-width="1.785" fill="none"/>
   <path id="path3660" d="m114.65 303.21c0 12.429-10.076 22.504-22.504 22.504s-22.504-10.075-22.504-22.504 10.076-22.504 22.504-22.504 22.504 10.075 22.504 22.504z" stroke="#857f90" stroke-miterlimit="10" stroke-width="1.785" fill="none"/>
   <path id="path3664" d="m94.423 303.21c0 1.2575-1.0188 2.2762-2.2762 2.2762-1.2575 0-2.2775-1.0188-2.2775-2.2762 0-1.2575 1.02-2.2762 2.2775-2.2762s2.2762 1.0188 2.2762 2.2762" fill="#857f90"/>
   <g stroke="#857f90" stroke-linecap="round" stroke-miterlimit="10" stroke-width="1.785" fill="none">
    <path id="path3668" d="m92.146 303.21v-14.422"/>
    <path id="path3672" d="m92.146 280.71v3.4375"/>
    <path id="path3676" d="m102.98 283.49-1.6562 3.0138"/>
    <path id="path3680" d="m111.84 292.32-3.0088 1.6638"/>
    <path id="path3684" d="m111.84 314.1-3.0088-1.6638"/>
    <path id="path3688" d="m102.99 322.93-1.655-3.0138"/>
    <path id="path3692" d="m80.535 322.49 1.775-2.945"/>
    <path id="path3696" d="m72.039 313.32 3.0738-1.5425"/>
    <path id="path3700" d="m71.938 293.31 3.0888 1.515"/>
    <path id="path3704" d="m80.341 284.06 1.8025 2.93"/>
    <path id="path3708" d="m114.65 303.22h-3.4375"/>
    <path id="path3712" d="m92.144 325.72v-3.4375"/>
    <path id="path3716" d="m69.642 303.21h3.4375"/>
   </g>
  </g>
 </g>
</svg>
