<?xml version="1.0" encoding="UTF-8" standalone="no"?>
<!-- Created with Inkscape (http://www.inkscape.org/) -->

<svg
   xmlns:dc="http://purl.org/dc/elements/1.1/"
   xmlns:cc="http://creativecommons.org/ns#"
   xmlns:rdf="http://www.w3.org/1999/02/22-rdf-syntax-ns#"
   xmlns:svg="http://www.w3.org/2000/svg"
   xmlns="http://www.w3.org/2000/svg"
   xmlns:sodipodi="http://sodipodi.sourceforge.net/DTD/sodipodi-0.dtd"
   xmlns:inkscape="http://www.inkscape.org/namespaces/inkscape"
   id="svg2"
   height="18.187mm"
   width="18.098mm"
   version="1.1"
   viewBox="0 0 64.125006 64.441877"
   inkscape:version="0.91 r13725"
   sodipodi:docname="routes_maps_menu.svg">
  <defs
     id="defs36" />
  <sodipodi:namedview
     pagecolor="#ffffff"
     bordercolor="#666666"
     borderopacity="1"
     objecttolerance="10"
     gridtolerance="10"
     guidetolerance="10"
     inkscape:pageopacity="0"
     inkscape:pageshadow="2"
     inkscape:window-width="640"
     inkscape:window-height="480"
     id="namedview34"
     showgrid="false"
     inkscape:zoom="5.1791338"
     inkscape:cx="21.93341"
     inkscape:cy="43.859088"
     inkscape:window-x="0"
     inkscape:window-y="25"
     inkscape:window-maximized="0"
     inkscape:current-layer="svg2" />
  <metadata
     id="metadata7">
    <rdf:RDF>
      <cc:Work
         rdf:about="">
        <dc:format>image/svg+xml</dc:format>
        <dc:type
           rdf:resource="http://purl.org/dc/dcmitype/StillImage" />
        <dc:title></dc:title>
      </cc:Work>
    </rdf:RDF>
  </metadata>
  <g
     id="g3422">
    <path
       style="fill:none;stroke:#f5f3f1;stroke-width:1.625;stroke-linecap:round;stroke-linejoin:round;stroke-miterlimit:10"
       inkscape:connector-curvature="0"
       stroke-miterlimit="10"
       d="m 63.32,63.63 -62.5,0 0,-58.75 62.5,0 0,58.75 z"
       id="path3696" />
    <g
       transform="matrix(1.25,0,0,-1.25,51.35,39.3)"
       id="g3698">
      <path
         style="fill:none;stroke:#f5f3f1;stroke-width:2;stroke-miterlimit:10"
         inkscape:connector-curvature="0"
         stroke-miterlimit="10"
         d="M 0,0 -1,0"
         id="path3700" />
    </g>
    <g
       transform="matrix(1.25,0,0,-1.25,46.2,39.3)"
       id="g3702">
      <path
         style="fill:none;stroke:#f5f3f1;stroke-width:2;stroke-miterlimit:10;stroke-dasharray:2.078, 3.117"
         inkscape:connector-curvature="0"
         stroke-miterlimit="10"
         d="M 0,0 -8.83,0"
         id="path3704" />
    </g>
    <g
       transform="matrix(1.25,0,0,-1.25,33.22,39.3)"
       id="g3706">
      <path
         style="fill:none;stroke:#f5f3f1;stroke-width:2;stroke-miterlimit:10"
         inkscape:connector-curvature="0"
         stroke-miterlimit="10"
         d="m 0,0 -1,0 0,1"
         id="path3708" />
    </g>
    <g
       transform="matrix(1.25,0,0,-1.25,31.97,34.17)"
       id="g3710">
      <path
         style="fill:none;stroke:#f5f3f1;stroke-width:2;stroke-miterlimit:10;stroke-dasharray:2.066, 3.1"
         inkscape:connector-curvature="0"
         stroke-miterlimit="10"
         d="M 0,0 0,8.782"
         id="path3712" />
    </g>
    <g
       transform="matrix(1.25,0,0,-1.25,31.97,21.26)"
       id="g3714">
      <path
         style="fill:none;stroke:#f5f3f1;stroke-width:2;stroke-miterlimit:10"
         inkscape:connector-curvature="0"
         stroke-miterlimit="10"
         d="M 0,0 0,1 -1,1"
         id="path3716" />
    </g>
    <g
       transform="matrix(1.25,0,0,-1.25,26.82,20.01)"
       id="g3718">
      <path
         style="fill:none;stroke:#f5f3f1;stroke-width:2;stroke-miterlimit:10;stroke-dasharray:2.078, 3.117"
         inkscape:connector-curvature="0"
         stroke-miterlimit="10"
         d="M 0,0 -8.831,0"
         id="path3720" />
    </g>
    <g
       transform="matrix(1.25,0,0,-1.25,13.84,20.01)"
       id="g3722">
      <path
         style="fill:none;stroke:#f5f3f1;stroke-width:2;stroke-miterlimit:10"
         inkscape:connector-curvature="0"
         stroke-miterlimit="10"
         d="M 0,0 -1,0"
         id="path3724" />
    </g>
    <g
       transform="matrix(1.25,0,0,-1.25,48.02,39.3)"
       id="g3726">
      <path
         style="fill:#f5f3f1"
         inkscape:connector-curvature="0"
         d="m 0,0 c 0,-1.473 1.193,-2.667 2.666,-2.667 1.473,0 2.666,1.194 2.666,2.667 0,1.473 -1.193,2.667 -2.666,2.667 C 1.193,2.667 0,1.473 0,0"
         id="path3728" />
    </g>
    <g
       transform="matrix(1.25,0,0,-1.25,16.1,20.01)"
       id="g3730">
      <path
         style="fill:#f5f3f1"
         inkscape:connector-curvature="0"
         d="m 0,0 c 0,-1.553 -1.26,-2.812 -2.813,-2.812 -1.553,0 -2.813,1.259 -2.813,2.812 0,1.554 1.26,2.813 2.813,2.813 C -1.26,2.813 0,1.554 0,0"
         id="path3732" />
    </g>
    <g
       transform="matrix(1.25,0,0,-1.25,20.37,0.81)"
       id="g3734">
      <path
         style="fill:none"
         inkscape:connector-curvature="0"
         d="M 0,0 -6.226,-10.661 -12.449,0 0,0 Z"
         id="path3736" />
    </g>
    <g
       transform="matrix(1.25,0,0,-1.25,20.37,0.81)"
       id="g3738">
      <path
         style="fill:none;stroke:#f5f3f1;stroke-width:1.29999995;stroke-linecap:round;stroke-linejoin:round;stroke-miterlimit:10"
         inkscape:connector-curvature="0"
         stroke-miterlimit="10"
         d="M 0,0 -6.226,-10.661 -12.449,0 0,0 Z"
         id="path3740" />
    </g>
    <path
       id="path3742"
       d="m 23.11,63.63 -22.291,0 0,-27.5 22.291,0 0,27.5 z"
       inkscape:connector-curvature="0"
       style="fill:none;stroke:#f5f3f1;stroke-width:1.625;stroke-linecap:round;stroke-linejoin:round;stroke-miterlimit:10" />
    <path
       id="path3744"
       d="m 63.32,27.59 -21.406,0 0,-22.711 21.406,0 0,22.711 z"
       inkscape:connector-curvature="0"
       style="fill:none;stroke:#f5f3f1;stroke-width:1.625;stroke-linecap:round;stroke-linejoin:round;stroke-miterlimit:10" />
    <path
       id="path3746"
       d="m 63.32,63.63 -21.406,0 0,-13.652 21.406,0 0,13.652 z"
       inkscape:connector-curvature="0"
       style="fill:none;stroke:#f5f3f1;stroke-width:1.625;stroke-linecap:round;stroke-linejoin:round;stroke-miterlimit:10" />
  </g>
</svg>
